<?xml version="1.0" encoding="utf-8"?>
<!-- Generator: Adobe Illustrator 24.2.3, SVG Export Plug-In . SVG Version: 6.00 Build 0)  -->
<svg version="1.1" id="Capa_1" xmlns="http://www.w3.org/2000/svg" xmlns:xlink="http://www.w3.org/1999/xlink" x="0px" y="0px"
	 viewBox="0 0 552 118" style="enable-background:new 0 0 552 118;" xml:space="preserve">
<g>
	<polygon points="217.26,93.97 211.58,93.97 211.58,32.47 149.64,11.11 76.62,35.71 8.05,35.71 8.05,30.18 75.2,30.2 150.49,6.25 
		225.22,31.18 225.22,36.68 217.26,33.77 	"/>
	<g>
		<path d="M228.86,90.81c0.44,0,0.83-0.12,1.16-0.37c0.33-0.25,0.5-0.62,0.5-1.12V51.51c0-0.5-0.17-0.84-0.5-1.04
			c-0.33-0.19-0.72-0.29-1.16-0.29V48.7h15.5v1.49c-0.28,0-0.57,0.08-0.87,0.25c-0.3,0.17-0.46,0.41-0.46,0.75
			c0,0.28,0.11,0.64,0.33,1.08c0.22,0.44,0.47,0.91,0.75,1.41l11.86,21.56l11.94-21.31c0.39-0.72,0.68-1.29,0.87-1.7
			c0.19-0.41,0.29-0.79,0.29-1.12c0-0.61-0.36-0.91-1.08-0.91V48.7h15.34v1.49c-0.44,0-0.83,0.1-1.16,0.29
			c-0.33,0.19-0.5,0.54-0.5,1.04v37.81c0,0.5,0.17,0.87,0.5,1.12c0.33,0.25,0.72,0.37,1.16,0.37v1.49h-13.02v-1.49
			c1.49,0,2.24-0.5,2.24-1.49V61.79h-0.17l-16.67,30.51h-0.25l-16.33-30.59h-0.17v27.61c0,0.99,0.77,1.49,2.32,1.49v1.49h-12.44
			V90.81z"/>
		<path d="M285.9,90.81c0.66-0.11,1.2-0.43,1.62-0.95c0.42-0.52,0.73-1.01,0.95-1.45l12.35-26.95c0.33-0.77,0.59-1.4,0.79-1.87
			c0.19-0.47,0.29-0.93,0.29-1.37c0-0.33-0.07-0.54-0.21-0.62c-0.14-0.08-0.29-0.18-0.46-0.29v-1.49h12.52v1.49
			c-0.17,0.11-0.35,0.19-0.54,0.25c-0.19,0.06-0.29,0.28-0.29,0.66c0,0.33,0.12,0.73,0.37,1.2c0.25,0.47,0.51,1.01,0.79,1.62
			l13.43,28.19c0.28,0.5,0.58,0.86,0.91,1.08c0.33,0.22,0.69,0.39,1.08,0.5v1.49h-11.77v-1.24c0.28,0,0.57-0.08,0.87-0.25
			c0.3-0.17,0.46-0.47,0.46-0.91c0-0.33-0.06-0.63-0.17-0.91c-0.11-0.28-0.25-0.63-0.42-1.08l-2.24-4.73h-17.74l-2.32,4.48
			c-0.22,0.44-0.4,0.84-0.54,1.2c-0.14,0.36-0.21,0.68-0.21,0.95c0,0.44,0.14,0.72,0.42,0.83c0.28,0.11,0.66,0.17,1.16,0.17v1.49
			H285.9V90.81z M313.6,77.05l-6.72-13.93l-5.89,13.93H313.6z"/>
		<path d="M331.5,90.81c1,0,1.49-0.42,1.49-1.24V58.56c0-0.83-0.5-1.24-1.49-1.24v-1.49h12.19v1.49c-0.39,0.06-0.58,0.19-0.58,0.41
			c0,0.28,0.61,1.02,1.82,2.24l19.9,21.06V58.56c0-0.83-0.55-1.24-1.66-1.24v-1.49h10.12v1.49c-1,0-1.49,0.41-1.49,1.24v31.01
			c0,0.83,0.5,1.24,1.49,1.24v1.49h-10.78v-1.49c0.39,0,0.58-0.14,0.58-0.42c0-0.22-0.26-0.61-0.79-1.16
			c-0.53-0.55-1.12-1.19-1.78-1.91l-20.56-21.89v24.13c0,0.83,0.58,1.24,1.74,1.24v1.49h-10.2V90.81z"/>
		<path d="M375.36,90.81c0.66-0.11,1.2-0.43,1.62-0.95c0.42-0.52,0.73-1.01,0.95-1.45l12.35-26.95c0.33-0.77,0.59-1.4,0.79-1.87
			c0.19-0.47,0.29-0.93,0.29-1.37c0-0.33-0.07-0.54-0.21-0.62c-0.14-0.08-0.29-0.18-0.46-0.29v-1.49h12.52v1.49
			c-0.17,0.11-0.35,0.19-0.54,0.25c-0.19,0.06-0.29,0.28-0.29,0.66c0,0.33,0.12,0.73,0.37,1.2c0.25,0.47,0.51,1.01,0.79,1.62
			l13.43,28.19c0.28,0.5,0.58,0.86,0.91,1.08c0.33,0.22,0.69,0.39,1.08,0.5v1.49H407.2v-1.24c0.28,0,0.57-0.08,0.87-0.25
			c0.3-0.17,0.46-0.47,0.46-0.91c0-0.33-0.06-0.63-0.17-0.91c-0.11-0.28-0.25-0.63-0.42-1.08l-2.24-4.73h-17.74l-2.32,4.48
			c-0.22,0.44-0.4,0.84-0.54,1.2c-0.14,0.36-0.21,0.68-0.21,0.95c0,0.44,0.14,0.72,0.42,0.83c0.28,0.11,0.66,0.17,1.16,0.17v1.49
			h-11.11V90.81z M403.06,77.05l-6.72-13.93l-5.89,13.93H403.06z"/>
		<path d="M453.3,67.85l-1-0.58c0.11-0.55,0.17-0.86,0.17-0.91c0-0.5-0.36-1.04-1.08-1.62c-0.72-0.58-1.66-1.12-2.82-1.62
			c-1.16-0.5-2.47-0.9-3.94-1.2c-1.46-0.3-2.94-0.46-4.44-0.46c-2.05,0-3.98,0.24-5.8,0.71c-1.82,0.47-3.43,1.22-4.81,2.24
			c-1.38,1.02-2.49,2.34-3.32,3.94c-0.83,1.6-1.24,3.57-1.24,5.89c0,2.32,0.44,4.27,1.33,5.84c0.88,1.58,2.03,2.85,3.44,3.81
			c1.41,0.97,2.97,1.67,4.68,2.11c1.71,0.44,3.37,0.66,4.97,0.66c2.38,0,4.63-0.17,6.76-0.5c2.13-0.33,4.08-0.97,5.85-1.91v-5.22
			h-8.54c-0.61,0-1.13,0.12-1.58,0.37c-0.44,0.25-0.72,0.71-0.83,1.37h-1.49v-8.54h1.49c0.11,0.55,0.39,0.91,0.83,1.08
			c0.44,0.17,0.97,0.25,1.58,0.25h16.25v1.49c-0.5,0.22-0.83,0.47-1,0.75c-0.17,0.28-0.25,0.69-0.25,1.24v7.88
			c0,0.5,0.07,0.84,0.21,1.04c0.14,0.19,0.48,0.4,1.04,0.62v1c-0.5,0.33-1.29,0.79-2.36,1.37c-1.08,0.58-2.43,1.15-4.06,1.7
			c-1.63,0.55-3.52,1.01-5.68,1.37c-2.16,0.36-4.56,0.54-7.21,0.54c-3.59,0-6.84-0.4-9.74-1.2c-2.9-0.8-5.36-2-7.38-3.61
			c-2.02-1.6-3.57-3.55-4.64-5.84c-1.08-2.29-1.62-4.9-1.62-7.83c0-2.93,0.54-5.54,1.62-7.83c1.08-2.29,2.62-4.26,4.64-5.89
			c2.02-1.63,4.48-2.87,7.38-3.73c2.9-0.86,6.15-1.29,9.74-1.29c2.16,0,4.06,0.19,5.72,0.58c1.66,0.39,3.09,0.8,4.31,1.24
			c1.27,0.44,2.29,0.86,3.07,1.24c0.77,0.39,1.35,0.58,1.74,0.58c0.44,0,0.77-0.04,0.99-0.12c0.22-0.08,0.5-0.26,0.83-0.54l1,0.5
			L453.3,67.85z"/>
		<path d="M497.74,63.54c0-1.05-0.86-1.58-2.57-1.58h-20.23v8.29h12.77c0.94,0,1.63-0.07,2.07-0.21c0.44-0.14,0.66-0.51,0.66-1.12
			h1.49v8.79h-1.66c0.17-0.61-0.06-0.98-0.66-1.12c-0.61-0.14-1.46-0.21-2.57-0.21h-12.1v9.78h21.22c0.66,0,1.22-0.15,1.66-0.46
			c0.44-0.3,0.66-0.7,0.66-1.2h1.49v8.71h-1.49c0-0.5-0.22-0.77-0.66-0.83c-0.44-0.06-1-0.08-1.66-0.08h-30.43v-1.49
			c0.28,0,0.55-0.1,0.83-0.29c0.28-0.19,0.41-0.51,0.41-0.95V58.56c0-0.44-0.14-0.76-0.41-0.95c-0.28-0.19-0.55-0.29-0.83-0.29
			v-1.49h29.43c1.71,0,2.57-0.5,2.57-1.49h1.49v9.2H497.74z"/>
		<path d="M528.42,55.83c4.92,0,8.76,0.82,11.52,2.45c2.76,1.63,4.15,4.41,4.15,8.33c0,1.49-0.28,2.82-0.83,3.98
			c-0.55,1.16-1.29,2.17-2.2,3.03c-0.91,0.86-1.92,1.55-3.03,2.07c-1.11,0.53-2.24,0.93-3.4,1.2l8.12,11.86
			c0.44,0.61,0.93,1.07,1.45,1.37c0.52,0.3,1.09,0.54,1.7,0.71v1.49h-12.69v-1.49c0.72,0,1.08-0.25,1.08-0.75
			c0-0.55-0.42-1.41-1.24-2.57l-6.55-9.78h-11.52v11.86c0,0.44,0.18,0.76,0.54,0.95c0.36,0.19,0.7,0.29,1.04,0.29v1.49h-11.03v-1.49
			c1,0,1.49-0.42,1.49-1.24V58.56c0-0.83-0.5-1.24-1.49-1.24v-1.49H528.42z M528.25,71.58c5.42,0,8.12-1.71,8.12-5.14
			c0-1.38-0.65-2.47-1.95-3.27c-1.3-0.8-3.36-1.2-6.18-1.2h-13.1v9.62H528.25z"/>
	</g>
	<g>
		<g>
			<path d="M24.35,96.07v-1.83c2.5,0,3.75-0.61,3.75-1.83V46.38c0-1.22-1.25-1.82-3.75-1.82v-1.83h35.69c6.49,0,11.59,1.2,15.31,3.6
				c3.72,2.4,5.58,6.47,5.58,12.22c0,5.75-1.86,9.82-5.58,12.22c-3.72,2.4-8.82,3.6-15.31,3.6H39.66v18.05
				c0,1.22,1.08,1.83,3.25,1.83v1.83H24.35z M61.26,65.04c2.23,0,4.14-0.44,5.73-1.32c1.59-0.88,2.38-2.6,2.38-5.17
				c0-2.57-0.79-4.29-2.38-5.17c-1.59-0.88-3.5-1.32-5.73-1.32h-21.6v12.98H61.26z"/>
		</g>
	</g>
	<g>
		<g>
			<path d="M135.34,59.16l-2.03-0.61c0.13-0.41,0.2-0.81,0.2-1.22c0-1.01-0.62-1.93-1.88-2.74c-1.25-0.81-2.84-1.5-4.77-2.08
				c-1.93-0.57-4.02-1-6.29-1.27c-2.27-0.27-4.41-0.41-6.44-0.41c-2.5,0-4.99,0.35-7.45,1.06c-2.47,0.71-4.66,1.81-6.59,3.3
				c-1.93,1.49-3.48,3.41-4.66,5.78c-1.18,2.37-1.77,5.24-1.77,8.62c0,3.31,0.59,6.17,1.77,8.57c1.18,2.4,2.74,4.34,4.66,5.83
				c1.93,1.49,4.12,2.58,6.59,3.29c2.47,0.71,4.95,1.06,7.45,1.06c3.85,0,7.32-0.32,10.39-0.96c3.08-0.64,5.69-1.33,7.86-2.08V76.6
				h-12.98c-0.95,0-1.66,0.2-2.13,0.61c-0.47,0.41-0.78,1.28-0.91,2.64h-1.83V66.87h1.83c0.13,1.15,0.44,1.88,0.91,2.18
				c0.47,0.3,1.18,0.46,2.13,0.46h25.35v1.82c-1.35,0.2-2.2,0.44-2.54,0.71c-0.34,0.27-0.51,0.85-0.51,1.72v11.46
				c0,0.68,0.2,1.12,0.61,1.32c0.41,0.2,0.88,0.44,1.42,0.71v1.62c-2.23,1.56-4.58,2.84-7.05,3.85c-2.47,1.01-4.97,1.81-7.5,2.38
				c-2.54,0.58-5.07,0.93-7.6,1.06s-5.02,0.2-7.45,0.2c-4.73,0-9.04-0.59-12.93-1.77c-3.89-1.18-7.22-2.94-9.99-5.27
				c-2.77-2.33-4.92-5.17-6.44-8.52c-1.52-3.35-2.28-7.15-2.28-11.41s0.76-8.06,2.28-11.41c1.52-3.35,3.67-6.2,6.44-8.57
				c2.77-2.37,6.1-4.17,9.99-5.42c3.89-1.25,8.2-1.88,12.93-1.88c2.97,0,5.81,0.2,8.52,0.61c2.7,0.41,5.1,0.86,7.2,1.37
				c2.09,0.51,3.83,0.98,5.22,1.42c1.38,0.44,2.25,0.66,2.58,0.66c0.61,0,1.08-0.13,1.42-0.41c0.34-0.27,0.67-0.51,1.01-0.71
				l1.22,0.71L135.34,59.16z"/>
		</g>
	</g>
	<g>
		<g>
			<path d="M198.16,59.16l-2.03-0.61c0.13-0.41,0.2-0.81,0.2-1.22c0-1.01-0.62-1.93-1.88-2.74c-1.25-0.81-2.84-1.5-4.77-2.08
				c-1.93-0.57-4.02-1-6.29-1.27c-2.27-0.27-4.41-0.41-6.44-0.41c-2.5,0-4.99,0.35-7.45,1.06c-2.47,0.71-4.66,1.81-6.59,3.3
				c-1.93,1.49-3.48,3.41-4.66,5.78c-1.18,2.37-1.77,5.24-1.77,8.62c0,3.31,0.59,6.17,1.77,8.57c1.18,2.4,2.74,4.34,4.66,5.83
				c1.93,1.49,4.12,2.58,6.59,3.29c2.47,0.71,4.95,1.06,7.45,1.06c3.85,0,7.32-0.32,10.39-0.96c3.08-0.64,5.69-1.33,7.86-2.08V76.6
				h-12.98c-0.95,0-1.66,0.2-2.13,0.61c-0.47,0.41-0.78,1.28-0.91,2.64h-1.83V66.87h1.83c0.13,1.15,0.44,1.88,0.91,2.18
				c0.47,0.3,1.18,0.46,2.13,0.46h25.35v1.82c-1.35,0.2-2.2,0.44-2.54,0.71c-0.34,0.27-0.51,0.85-0.51,1.72v11.46
				c0,0.68,0.2,1.12,0.61,1.32c0.41,0.2,0.88,0.44,1.42,0.71v1.62c-2.23,1.56-4.58,2.84-7.05,3.85c-2.47,1.01-4.97,1.81-7.5,2.38
				c-2.54,0.58-5.07,0.93-7.6,1.06s-5.02,0.2-7.45,0.2c-4.73,0-9.04-0.59-12.93-1.77c-3.89-1.18-7.22-2.94-9.99-5.27
				c-2.77-2.33-4.92-5.17-6.44-8.52c-1.52-3.35-2.28-7.15-2.28-11.41s0.76-8.06,2.28-11.41c1.52-3.35,3.67-6.2,6.44-8.57
				c2.77-2.37,6.1-4.17,9.99-5.42c3.89-1.25,8.2-1.88,12.93-1.88c2.97,0,5.81,0.2,8.52,0.61c2.7,0.41,5.1,0.86,7.2,1.37
				c2.09,0.51,3.83,0.98,5.22,1.42c1.38,0.44,2.25,0.66,2.58,0.66c0.61,0,1.08-0.13,1.42-0.41c0.34-0.27,0.67-0.51,1.01-0.71
				l1.22,0.71L198.16,59.16z"/>
		</g>
	</g>
</g>
</svg>
